<svg xmlns="http://www.w3.org/2000/svg" style="display: none;">
  
    <symbol id="icon-bolt" viewBox="0 0 512 512">
      <path d="m381 162c3 4 4 8 2 12l-154 331c-3 5-7 7-12 7-1 0-3 0-4-1-4-1-6-2-8-5-1-3-2-6-1-9l56-230-116 28c0 1-2 1-3 1-4 0-7-1-9-3-3-3-5-7-4-12l58-235c0-3 2-5 4-7 3-2 5-2 8-2l94 0c4 0 7 1 9 3 3 3 4 5 4 9 0 1-1 3-2 5l-48 132 113-28c1 0 2-1 3-1 4 0 7 2 10 5z"/>
    </symbol>
  
    <symbol id="icon-laptop" viewBox="0 0 512 512">
      <path d="m101 366c-13 0-24-5-33-14-9-9-13-19-13-32l0-201c0-13 4-23 13-32 9-9 20-14 33-14l310 0c13 0 24 5 33 14 9 9 13 19 13 32l0 201c0 13-4 23-13 32-9 9-20 14-33 14z m-10-247l0 201c0 2 1 5 3 6 2 2 4 3 7 3l310 0c3 0 5-1 7-3 2-1 3-4 3-6l0-201c0-3-1-5-3-7-2-1-4-2-7-2l-310 0c-3 0-5 1-7 2-2 2-3 4-3 7z m394 265l45 0 0 27c0 8-4 15-13 20-9 5-20 8-32 8l-458 0c-12 0-23-3-32-8-9-5-13-12-13-20l0-27z m-206 27c3 0 4-1 4-4 0-3-1-5-4-5l-46 0c-3 0-4 2-4 5 0 3 1 4 4 4z"/>
    </symbol>
  
    <symbol id="icon-line-chart" viewBox="0 0 512 512">
      <path d="m549 439l0 36-586 0 0-438 37 0 0 402z m-37-357l0 125c0 4-2 6-6 8-3 2-7 1-10-2l-34-35-181 181c-2 2-4 3-7 3-2 0-4-1-6-3l-67-66-119 118-55-54 168-168c1-1 4-2 6-2 3 0 5 1 7 2l66 67 133-133-35-34c-3-3-3-7-2-10 2-4 5-6 9-6l124 0c3 0 5 1 6 3 2 1 3 4 3 6z"/>
    </symbol>
  
    <symbol id="icon-wrench" viewBox="0 0 512 512">
      <path d="m128 421c0-5-2-10-5-13-4-4-8-6-13-6-5 0-10 2-13 6-4 3-6 8-6 13 0 5 2 9 6 12 3 4 8 6 13 6 5 0 9-2 13-6 3-3 5-7 5-12z m184-120l-195 194c-7 7-15 11-26 11-9 0-18-4-26-11l-30-30c-7-7-11-16-11-26 0-10 4-19 11-26l195-195c7 19 18 35 32 50 15 14 31 25 50 33z m181-125c0 8-2 18-6 31-9 25-25 46-47 62-23 16-47 24-74 24-36 0-66-13-91-38-25-25-37-55-37-90 0-36 12-66 37-91 25-25 55-37 91-37 11 0 22 1 34 4 13 3 23 8 31 14 3 2 5 4 5 8 0 3-2 5-5 8l-84 48 0 64 56 30c1 0 8-5 22-13 14-9 27-17 39-24 12-6 18-10 20-10 3 0 5 1 7 3 1 2 2 4 2 7z"/>
    </symbol>
  
</svg>
